<svg width="1024" height="1024" viewBox="0 0 1024 1024" fill="none" xmlns="http://www.w3.org/2000/svg">
<path d="M764 726.9H349.5C265.1 726.9 196.4 658.2 196.4 573.8C196.4 515.1 230.2 462.5 280.8 437C279.6 429.6 278.9 422.1 278.9 414.5C278.9 340.4 339.2 280.1 413.3 280.1C433.3 280.1 452.6 284.5 470.2 292.7C502.8 221.6 574 174 656 174C768.9 174 860.8 265.9 860.8 378.8C860.8 401.9 856.8 424.9 849.1 446.6C890.9 474.5 917.1 521.9 917.1 573.8C917.1 658.2 848.4 726.9 764 726.9Z" fill="url(#paint0_linear_629_322)" fill-opacity="0.5"/>
<path d="M673.5 850.4H259.1C174.7 850.4 106 781.7 106 697.3C106 638.6 139.8 586 190.4 560.5C189.2 553.1 188.5 545.6 188.5 538C188.5 463.9 248.8 403.6 322.9 403.6C342.9 403.6 362.2 408 379.8 416.2C412.4 345.1 483.6 297.5 565.6 297.5C678.5 297.5 770.4 389.4 770.4 502.3C770.4 525.4 766.4 548.4 758.7 570.1C800.5 598 826.7 645.4 826.7 697.3C826.6 781.7 758 850.4 673.5 850.4Z" fill="url(#paint1_linear_629_322)"/>
<path d="M344.6 636.488H404.3V799.388C404.3 804.888 408.8 809.388 414.3 809.388H532.2C537.7 809.388 542.2 804.888 542.2 799.388V637.188H601.6C610.5 637.188 615 626.488 608.7 620.188C575.6 586.888 502.4 514.488 479.4 491.888C475.5 487.988 469.3 488.088 465.4 491.888C442.6 514.488 370.2 586.388 337.5 619.488C331.2 625.788 335.7 636.488 344.6 636.488Z" fill="url(#paint2_linear_629_322)"/>
<defs>
<linearGradient id="paint0_linear_629_322" x1="556.735" y1="210.107" x2="556.735" y2="736.49" gradientUnits="userSpaceOnUse">
<stop stop-color="#39C2FF"/>
<stop offset="1" stop-color="#0066FF" stop-opacity="0"/>
</linearGradient>
<linearGradient id="paint1_linear_629_322" x1="258.747" y1="375.184" x2="654.131" y2="849.644" gradientUnits="userSpaceOnUse">
<stop stop-color="#39C2FF"/>
<stop offset="1" stop-color="#0066FF"/>
</linearGradient>
<linearGradient id="paint2_linear_629_322" x1="466.514" y1="818.376" x2="466.514" y2="500.98" gradientUnits="userSpaceOnUse">
<stop stop-color="#39C2FF" stop-opacity="0"/>
<stop offset="0.433" stop-color="#C9EEFF" stop-opacity="0.6"/>
<stop offset="1" stop-color="white"/>
</linearGradient>
</defs>
</svg>
