<svg width="500" height="300" viewBox="0 0 500 300" fill="none" xmlns="http://www.w3.org/2000/svg">
<rect width="500" height="300" fill="#0066FF" fill-opacity="0.05"/>
<path d="M374.395 91.3477H246.865C243.613 91.3477 241.006 93.9844 241.006 97.207V191.045C241.006 194.297 243.643 196.904 246.865 196.904H374.395C377.646 196.904 380.254 194.268 380.254 191.045V97.207C380.254 93.9844 377.646 91.3477 374.395 91.3477Z" fill="url(#paint0_linear_629_147)" fill-opacity="0.5"/>
<path d="M272.764 58.0957H145.234C141.982 58.0957 139.375 60.7324 139.375 63.9551V157.793C139.375 161.045 142.012 163.652 145.234 163.652H272.764C276.016 163.652 278.623 161.016 278.623 157.793V63.9844C278.652 60.7324 276.016 58.0957 272.764 58.0957Z" fill="url(#paint1_linear_629_147)" fill-opacity="0.5"/>
<path d="M224.014 80.9766H194.014C192.197 80.9766 190.703 79.4824 190.703 77.666C190.703 75.8496 192.197 74.3555 194.014 74.3555H224.014C225.83 74.3555 227.324 75.8496 227.324 77.666C227.324 79.4824 225.83 80.9766 224.014 80.9766Z" fill="#236FFB" fill-opacity="0.2"/>
<path d="M325.615 114.199H295.615C293.799 114.199 292.305 112.705 292.305 110.889C292.305 109.072 293.799 107.578 295.615 107.578H325.615C327.432 107.578 328.926 109.072 328.926 110.889C328.955 112.734 327.461 114.199 325.615 114.199Z" fill="#236FFB" fill-opacity="0.2"/>
<path d="M323.418 125.449H183.877C180.625 125.449 178.018 128.086 178.018 131.309V234.258C178.018 237.51 180.654 240.117 183.877 240.117H323.418C326.67 240.117 329.277 237.48 329.277 234.258V131.338C329.277 128.086 326.67 125.449 323.418 125.449Z" fill="url(#paint2_linear_629_147)"/>
<path d="M259.111 224.268H191.875C190.176 224.268 188.828 222.891 188.828 221.221V166.934C188.828 165.234 190.205 163.887 191.875 163.887H259.111C260.811 163.887 262.158 165.264 262.158 166.934V221.221C262.158 222.92 260.811 224.268 259.111 224.268Z" fill="#AEDCFF"/>
<path d="M269.951 150.293H237.373C235.381 150.293 233.77 148.682 233.77 146.689C233.77 144.697 235.381 143.086 237.373 143.086H269.951C271.943 143.086 273.555 144.697 273.555 146.689C273.555 148.682 271.943 150.293 269.951 150.293Z" fill="#AEDCFF"/>
<path d="M315.039 224.268H276.602C274.902 224.268 273.555 222.891 273.555 221.221V166.934C273.555 165.234 274.932 163.887 276.602 163.887H315.039C316.738 163.887 318.086 165.264 318.086 166.934V221.221C318.115 222.92 316.738 224.268 315.039 224.268Z" fill="#AEDCFF"/>
<path d="M169.551 158.437L130.146 197.871L120.566 188.291L159.971 148.857L169.551 158.437Z" fill="url(#paint3_linear_629_147)"/>
<path d="M150.373 158.487L159.944 148.916L169.516 158.487L159.944 168.059L150.373 158.487Z" fill="#236FFB"/>
<defs>
<linearGradient id="paint0_linear_629_147" x1="310.628" y1="94.024" x2="310.628" y2="202.3" gradientUnits="userSpaceOnUse">
<stop stop-color="#39C2FF"/>
<stop offset="1" stop-color="#236FFB" stop-opacity="0"/>
</linearGradient>
<linearGradient id="paint1_linear_629_147" x1="209.011" y1="60.783" x2="209.011" y2="169.059" gradientUnits="userSpaceOnUse">
<stop stop-color="#39C2FF"/>
<stop offset="1" stop-color="#236FFB" stop-opacity="0"/>
</linearGradient>
<linearGradient id="paint2_linear_629_147" x1="196.607" y1="125.755" x2="308.484" y2="237.633" gradientUnits="userSpaceOnUse">
<stop stop-color="#39C2FF"/>
<stop offset="1" stop-color="#236FFB"/>
</linearGradient>
<linearGradient id="paint3_linear_629_147" x1="166.35" y1="150.861" x2="125.002" y2="193.694" gradientUnits="userSpaceOnUse">
<stop stop-color="#236FFB"/>
<stop offset="1" stop-color="#236FFB" stop-opacity="0"/>
</linearGradient>
</defs>
</svg>
