<svg width="500" height="300" viewBox="0 0 500 300" fill="none" xmlns="http://www.w3.org/2000/svg">
<rect width="500" height="300" fill="#0066FF" fill-opacity="0.05"/>
<path d="M334.456 179.731H205.38C196.007 179.731 188.398 172.122 188.398 162.749V74.4397C188.398 65.067 196.007 57.458 205.38 57.458H234.455C237.554 57.458 240.477 58.8689 242.392 61.2877L249.875 70.61C251.815 73.0287 254.738 74.4397 257.812 74.4397H334.43C338.94 74.4397 343.249 76.2285 346.449 79.4031C349.623 82.5777 351.412 86.9113 351.412 91.4213V162.749C351.437 172.147 343.828 179.731 334.456 179.731Z" fill="url(#paint0_linear_629_246)" fill-opacity="0.5"/>
<path d="M301.172 156.828H142.794C139.821 156.828 137.428 154.409 137.428 151.461V126.014C137.428 123.041 139.846 120.647 142.794 120.647H301.172C304.145 120.647 306.539 123.066 306.539 126.014V151.436C306.539 154.409 304.145 156.828 301.172 156.828Z" fill="url(#paint1_linear_629_246)"/>
<path d="M167.586 138.737C167.586 143.678 163.582 147.682 158.642 147.682C153.701 147.682 149.697 143.678 149.697 138.737C149.697 133.797 153.701 129.793 158.642 129.793C163.582 129.793 167.586 133.797 167.586 138.737Z" fill="white" fill-opacity="0.8"/>
<path d="M240.88 138.587L232.817 146.649C230.676 148.791 227.174 148.791 225.032 146.649C222.89 144.508 222.89 141.006 225.032 138.864L233.094 130.802C235.236 128.66 238.738 128.66 240.88 130.802C243.021 132.943 243.021 136.445 240.88 138.587Z" fill="#003677" fill-opacity="0.2"/>
<path d="M265.169 138.587L257.106 146.649C254.965 148.791 251.463 148.791 249.321 146.649C247.179 144.508 247.179 141.006 249.321 138.864L257.384 130.802C259.525 128.66 263.027 128.66 265.169 130.802C267.336 132.943 267.336 136.445 265.169 138.587Z" fill="#003677" fill-opacity="0.2"/>
<path d="M290.288 138.587L282.226 146.649C280.084 148.791 276.582 148.791 274.44 146.649C272.299 144.508 272.299 141.006 274.44 138.864L282.503 130.802C284.644 128.66 288.146 128.66 290.288 130.802C292.455 132.943 292.455 136.445 290.288 138.587Z" fill="#003677" fill-opacity="0.2"/>
<path d="M301.172 199.66H142.794C139.821 199.66 137.428 197.241 137.428 194.294V168.871C137.428 165.898 139.846 163.505 142.794 163.505H301.172C304.145 163.505 306.539 165.924 306.539 168.871V194.294C306.539 197.267 304.145 199.66 301.172 199.66Z" fill="url(#paint2_linear_629_246)"/>
<path d="M167.586 181.569C167.586 186.51 163.582 190.514 158.642 190.514C153.701 190.514 149.697 186.51 149.697 181.569C149.697 176.629 153.701 172.625 158.642 172.625C163.582 172.625 167.586 176.629 167.586 181.569Z" fill="white" fill-opacity="0.8"/>
<path d="M240.88 181.443L232.817 189.506C230.676 191.647 227.174 191.647 225.032 189.506C222.89 187.364 222.89 183.862 225.032 181.72L233.094 173.658C235.236 171.516 238.738 171.516 240.88 173.658C243.021 175.8 243.021 179.277 240.88 181.443Z" fill="#003677" fill-opacity="0.2"/>
<path d="M265.169 181.443L257.106 189.506C254.965 191.647 251.463 191.647 249.321 189.506C247.179 187.364 247.179 183.862 249.321 181.72L257.384 173.658C259.525 171.516 263.027 171.516 265.169 173.658C267.336 175.8 267.336 179.277 265.169 181.443Z" fill="#003677" fill-opacity="0.2"/>
<path d="M290.288 181.443L282.226 189.506C280.084 191.647 276.582 191.647 274.44 189.506C272.299 187.364 272.299 183.862 274.44 181.72L282.503 173.658C284.644 171.516 288.146 171.516 290.288 173.658C292.455 175.8 292.455 179.277 290.288 181.443Z" fill="#003677" fill-opacity="0.2"/>
<path d="M301.172 242.517H142.794C139.821 242.517 137.428 240.099 137.428 237.151V211.704C137.428 208.73 139.846 206.337 142.794 206.337H301.172C304.145 206.337 306.539 208.756 306.539 211.704V237.126C306.539 240.099 304.145 242.517 301.172 242.517Z" fill="url(#paint3_linear_629_246)"/>
<path d="M167.586 224.427C167.586 229.368 163.582 233.371 158.642 233.371C153.701 233.371 149.697 229.368 149.697 224.427C149.697 219.486 153.701 215.482 158.642 215.482C163.582 215.482 167.586 219.486 167.586 224.427Z" fill="white" fill-opacity="0.8"/>
<path d="M240.88 224.275L232.817 232.338C230.676 234.479 227.174 234.479 225.032 232.338C222.89 230.196 222.89 226.694 225.032 224.552L233.094 216.49C235.236 214.348 238.738 214.348 240.88 216.49C243.021 218.632 243.021 222.134 240.88 224.275Z" fill="#003677" fill-opacity="0.2"/>
<path d="M265.169 224.275L257.106 232.338C254.965 234.479 251.463 234.479 249.321 232.338C247.179 230.196 247.179 226.694 249.321 224.552L257.384 216.49C259.525 214.348 263.027 214.348 265.169 216.49C267.336 218.632 267.336 222.134 265.169 224.275Z" fill="#003677" fill-opacity="0.2"/>
<path d="M290.288 224.275L282.226 232.338C280.084 234.479 276.582 234.479 274.44 232.338C272.299 230.196 272.299 226.694 274.44 224.552L282.503 216.49C284.644 214.348 288.146 214.348 290.288 216.49C292.455 218.632 292.455 222.134 290.288 224.275Z" fill="#003677" fill-opacity="0.2"/>
<path d="M322.009 105.605H220.598C218.506 105.605 216.818 103.917 216.818 101.826C216.818 99.735 218.506 98.0469 220.598 98.0469H321.984C324.075 98.0469 325.763 99.735 325.763 101.826C325.788 103.892 324.1 105.605 322.009 105.605Z" fill="#236FFB" fill-opacity="0.2"/>
<path d="M322.009 130.927H220.598C218.506 130.927 216.818 129.239 216.818 127.147C216.818 125.056 218.506 123.368 220.598 123.368H321.984C324.075 123.368 325.763 125.056 325.763 127.147C325.788 129.239 324.1 130.927 322.009 130.927Z" fill="#236FFB" fill-opacity="0.2"/>
<path d="M308.907 156.273H220.598C218.506 156.273 216.818 154.585 216.818 152.494C216.818 150.403 218.506 148.715 220.598 148.715H308.882C310.973 148.715 312.661 150.403 312.661 152.494C312.687 154.585 310.998 156.273 308.907 156.273Z" fill="#236FFB" fill-opacity="0.2"/>
<path d="M362.698 180.209L322.461 220.446L312.686 210.671L352.922 170.434L362.698 180.209Z" fill="url(#paint4_linear_629_246)"/>
<path d="M343.094 180.248L352.875 170.467L362.655 180.248L352.875 190.028L343.094 180.248Z" fill="#236FFB"/>
<defs>
<linearGradient id="paint0_linear_629_246" x1="269.911" y1="63.2325" x2="269.911" y2="180.256" gradientUnits="userSpaceOnUse">
<stop stop-color="#39C2FF"/>
<stop offset="1" stop-color="#236FFB" stop-opacity="0"/>
</linearGradient>
<linearGradient id="paint1_linear_629_246" x1="137.42" y1="138.73" x2="306.547" y2="138.73" gradientUnits="userSpaceOnUse">
<stop stop-color="#39C2FF"/>
<stop offset="1" stop-color="#236FFB"/>
</linearGradient>
<linearGradient id="paint2_linear_629_246" x1="137.42" y1="181.576" x2="306.547" y2="181.576" gradientUnits="userSpaceOnUse">
<stop stop-color="#39C2FF"/>
<stop offset="1" stop-color="#236FFB"/>
</linearGradient>
<linearGradient id="paint3_linear_629_246" x1="137.42" y1="224.421" x2="306.547" y2="224.421" gradientUnits="userSpaceOnUse">
<stop stop-color="#39C2FF"/>
<stop offset="1" stop-color="#236FFB"/>
</linearGradient>
<linearGradient id="paint4_linear_629_246" x1="359.423" y1="172.476" x2="317.214" y2="216.201" gradientUnits="userSpaceOnUse">
<stop stop-color="#236FFB"/>
<stop offset="1" stop-color="#236FFB" stop-opacity="0"/>
</linearGradient>
</defs>
</svg>
