<svg width="500" height="300" viewBox="0 0 500 300" fill="none" xmlns="http://www.w3.org/2000/svg">
<g clip-path="url(#clip0_629_178)">
<rect width="500" height="300" fill="#0066FF" fill-opacity="0.05"/>
<g clip-path="url(#clip1_629_178)">
<path d="M410.491 94.2324C410.491 90.0215 407.046 86.5762 402.835 86.5762C398.624 86.5762 395.179 90.0215 395.179 94.2324C395.179 97.6777 397.476 100.587 400.653 101.544V122.714H370.832V127.116H405.055V101.544C408.156 100.549 410.491 97.6777 410.491 94.2324Z" fill="url(#paint0_linear_629_178)"/>
<path d="M443.643 112.569C443.643 108.358 440.198 104.913 435.987 104.913C431.776 104.913 428.33 108.358 428.33 112.569C428.33 116.015 430.627 118.924 433.766 119.881V142.582H370.832V146.946H438.207V119.843C441.346 118.924 443.643 116.015 443.643 112.569Z" fill="url(#paint1_linear_629_178)"/>
<path d="M460.678 157.435C457.233 157.435 454.323 159.731 453.366 162.871H370.832V167.273H453.366C454.323 170.412 457.195 172.747 460.678 172.747C464.889 172.747 468.334 169.302 468.334 165.091C468.334 160.88 464.889 157.435 460.678 157.435Z" fill="url(#paint2_linear_629_178)"/>
<path d="M424.081 204.1V182.279H370.832V186.682H419.679V204.138C416.54 205.095 414.205 207.966 414.205 211.45C414.205 215.661 417.65 219.106 421.861 219.106C426.072 219.106 429.517 215.661 429.517 211.45C429.517 207.966 427.22 205.057 424.081 204.1Z" fill="url(#paint3_linear_629_178)"/>
<path d="M131.842 94.2324C131.842 90.0215 135.287 86.5762 139.498 86.5762C143.709 86.5762 147.154 90.0215 147.154 94.2324C147.154 97.6777 144.857 100.587 141.68 101.544V122.714H171.501V127.116H137.278V101.544C134.139 100.549 131.842 97.6777 131.842 94.2324Z" fill="url(#paint4_linear_629_178)"/>
<path d="M98.6914 112.569C98.6914 108.358 102.137 104.913 106.348 104.913C110.559 104.913 114.004 108.358 114.004 112.569C114.004 116.015 111.707 118.924 108.568 119.881V142.582H171.541V146.946H104.166V119.843C100.988 118.924 98.6914 116.015 98.6914 112.569Z" fill="url(#paint5_linear_629_178)"/>
<path d="M81.6555 157.435C85.1008 157.435 88.0102 159.731 88.9672 162.871H171.54V167.273H88.9289C87.9719 170.412 85.1008 172.747 81.6172 172.747C77.4062 172.747 73.9609 169.302 73.9609 165.091C73.9992 160.88 77.4445 157.435 81.6555 157.435Z" fill="url(#paint6_linear_629_178)"/>
<path d="M118.253 204.1V182.279H171.502V186.682H122.655V204.138C125.794 205.095 128.129 207.966 128.129 211.45C128.129 215.661 124.684 219.106 120.473 219.106C116.262 219.106 112.817 215.661 112.817 211.45C112.779 207.966 115.114 205.057 118.253 204.1Z" fill="url(#paint7_linear_629_178)"/>
<path d="M360.458 233.422H354.831C354.295 235.298 353.529 237.825 352.572 239.471L356.515 243.299C357.396 244.141 357.893 245.29 357.893 246.515C357.893 247.74 357.396 248.888 356.515 249.73L353.223 252.946C351.386 254.707 348.438 254.707 346.6 252.946L342.657 249.118C341.011 250.037 339.212 250.764 337.413 251.3V258.076C337.413 260.564 335.307 262.746 332.743 262.746H327.307C324.742 262.708 322.675 260.64 322.636 258.076V251.3C320.646 250.764 319.344 249.998 317.583 249.003L313.487 252.984C311.65 254.745 308.702 254.745 306.864 252.984L303.572 249.769C302.692 248.926 302.194 247.778 302.194 246.553C302.194 245.328 302.692 244.18 303.572 243.337L307.707 239.318C306.788 237.71 306.099 235.375 305.563 233.576H299.897C297.332 233.576 294.576 231.547 294.576 229.058V224.35C294.576 221.862 297.332 219.833 299.897 219.833H305.563C306.099 217.957 306.864 216.962 307.821 215.315L303.572 211.181C302.692 210.339 302.194 209.19 302.194 207.965C302.194 206.74 302.692 205.592 303.572 204.75L306.864 201.534C308.702 199.773 311.65 199.773 313.487 201.534L317.736 205.669C319.459 204.75 320.454 204.022 322.368 203.487V196.864C322.368 194.376 324.359 192.347 326.962 192.347H332.589C335.154 192.347 337.26 194.376 337.26 196.864V203.487C339.097 204.022 340.782 204.673 342.466 205.554L346.6 201.534C348.438 199.773 351.386 199.773 353.223 201.534L356.515 204.75C357.396 205.592 357.893 206.74 357.893 207.965C357.893 209.19 357.396 210.339 356.515 211.181L352.457 215.086C353.453 216.808 354.257 217.995 354.831 219.909H360.458C363.023 219.909 365.129 221.938 365.129 224.426V228.867C365.129 231.394 363.061 233.422 360.458 233.422ZM329.871 213.019C322.215 213.019 315.975 219.067 315.975 226.494C315.975 233.958 322.177 239.969 329.871 239.969C337.528 239.969 343.768 233.92 343.768 226.494C343.768 219.067 337.528 213.019 329.871 213.019Z" fill="url(#paint8_linear_629_178)" fill-opacity="0.5"/>
<path d="M317.393 158.353H305.793C304.683 162.181 303.114 167.387 301.161 170.794L309.277 178.718C311.076 180.441 312.11 182.853 312.11 185.341C312.11 187.829 311.076 190.241 309.277 191.964L302.463 198.586C298.673 202.223 292.663 202.223 288.835 198.586L280.681 190.662C277.274 192.576 273.637 194.069 269.847 195.141V209.075C269.847 214.205 265.56 218.722 260.277 218.722H249.099C243.816 218.646 239.567 214.358 239.529 209.075V195.141C235.432 194.031 232.714 192.423 229.116 190.432L220.732 198.548C216.943 202.223 210.932 202.223 207.104 198.548L200.29 191.925C198.491 190.203 197.457 187.791 197.457 185.303C197.457 182.814 198.491 180.403 200.29 178.68L208.789 170.411C206.913 167.119 205.458 162.296 204.386 158.621H192.787C187.504 158.621 181.877 154.448 181.877 149.318V139.633C181.877 134.504 187.504 130.331 192.787 130.331H204.539C205.65 126.503 207.181 124.436 209.171 121.029L200.405 112.492C198.606 110.769 197.572 108.357 197.572 105.869C197.572 103.381 198.606 100.969 200.405 99.2465L207.219 92.6238C211.009 88.9871 217.019 88.9871 220.847 92.6238L229.575 101.122C233.097 99.2082 235.164 97.7152 239.107 96.6051V83.0152C239.107 77.8855 243.242 73.7129 248.525 73.7129H260.124C265.407 73.7129 269.694 77.8855 269.694 83.0152V96.6051C273.484 97.6769 276.968 99.0551 280.375 100.893L288.911 92.6238C292.701 88.9871 298.711 88.9871 302.539 92.6238L309.354 99.2465C311.153 100.969 312.186 103.381 312.186 105.869C312.186 108.357 311.153 110.769 309.354 112.492L300.97 120.607C303.037 124.129 304.683 126.541 305.832 130.561H317.431C322.714 130.561 327.001 134.733 327.001 139.863V149.012C327.001 154.18 322.714 158.353 317.393 158.353ZM254.496 116.358C238.725 116.358 225.939 128.761 225.939 144.074C225.939 159.386 238.725 171.789 254.496 171.789C270.268 171.789 283.054 159.386 283.054 144.074C283.054 128.761 270.268 116.358 254.496 116.358Z" fill="url(#paint9_linear_629_178)"/>
</g>
</g>
<defs>
<linearGradient id="paint0_linear_629_178" x1="370.815" y1="106.822" x2="410.476" y2="106.822" gradientUnits="userSpaceOnUse">
<stop stop-color="#236FFB"/>
<stop offset="1" stop-color="#236FFB" stop-opacity="0"/>
</linearGradient>
<linearGradient id="paint1_linear_629_178" x1="370.815" y1="125.926" x2="443.64" y2="125.926" gradientUnits="userSpaceOnUse">
<stop stop-color="#236FFB"/>
<stop offset="1" stop-color="#236FFB" stop-opacity="0"/>
</linearGradient>
<linearGradient id="paint2_linear_629_178" x1="370.815" y1="165.1" x2="468.325" y2="165.1" gradientUnits="userSpaceOnUse">
<stop stop-color="#236FFB"/>
<stop offset="1" stop-color="#236FFB" stop-opacity="0"/>
</linearGradient>
<linearGradient id="paint3_linear_629_178" x1="370.815" y1="200.671" x2="429.528" y2="200.671" gradientUnits="userSpaceOnUse">
<stop stop-color="#236FFB"/>
<stop offset="1" stop-color="#236FFB" stop-opacity="0"/>
</linearGradient>
<linearGradient id="paint4_linear_629_178" x1="131.847" y1="106.822" x2="171.508" y2="106.822" gradientUnits="userSpaceOnUse">
<stop stop-color="#236FFB" stop-opacity="0.0418994"/>
<stop offset="1" stop-color="#236FFB"/>
</linearGradient>
<linearGradient id="paint5_linear_629_178" x1="98.6844" y1="125.926" x2="171.509" y2="125.926" gradientUnits="userSpaceOnUse">
<stop stop-color="#236FFB" stop-opacity="0.0418994"/>
<stop offset="1" stop-color="#236FFB"/>
</linearGradient>
<linearGradient id="paint6_linear_629_178" x1="73.9992" y1="165.1" x2="171.509" y2="165.1" gradientUnits="userSpaceOnUse">
<stop stop-color="#236FFB" stop-opacity="0.0418994"/>
<stop offset="1" stop-color="#236FFB"/>
</linearGradient>
<linearGradient id="paint7_linear_629_178" x1="112.797" y1="200.671" x2="171.509" y2="200.671" gradientUnits="userSpaceOnUse">
<stop stop-color="#236FFB" stop-opacity="0.0418994"/>
<stop offset="1" stop-color="#236FFB"/>
</linearGradient>
<linearGradient id="paint8_linear_629_178" x1="329.859" y1="195.191" x2="329.859" y2="278.196" gradientUnits="userSpaceOnUse">
<stop stop-color="#39C2FF"/>
<stop offset="1" stop-color="#236FFB" stop-opacity="0"/>
</linearGradient>
<linearGradient id="paint9_linear_629_178" x1="210.16" y1="92.2097" x2="294.463" y2="192.905" gradientUnits="userSpaceOnUse">
<stop stop-color="#39C2FF"/>
<stop offset="1" stop-color="#236FFB"/>
</linearGradient>
<clipPath id="clip0_629_178">
<rect width="500" height="300" fill="white"/>
</clipPath>
<clipPath id="clip1_629_178">
<rect width="392" height="392" fill="white" transform="translate(74 -28)"/>
</clipPath>
</defs>
</svg>
