<svg width="320" height="320" viewBox="0 0 320 320" fill="none" xmlns="http://www.w3.org/2000/svg">
<g clip-path="url(#clip0_114_8)">
<path d="M320 160C320 248.366 248.366 320 160 320C71.6344 320 0 248.366 0 160C0 71.6344 71.6344 0 160 0C248.366 0 320 71.6344 320 160Z" fill="#D32F2F"/>
<path d="M51.216 229.28C49.2533 229.237 47.5573 229.152 46.128 229.024L46.608 225.568C48.6987 225.76 50.3733 225.877 51.632 225.92H52.72C54.0853 225.92 55.0347 225.749 55.568 225.408C56.1227 225.067 56.464 224.576 56.592 223.936C56.6133 223.829 56.624 223.68 56.624 223.488C56.624 222.955 56.5387 222.603 56.368 222.432C56.2187 222.197 55.9733 222.037 55.632 221.952C55.2907 221.867 54.64 221.771 53.68 221.664L52.944 221.568C51.8347 221.483 50.7787 221.291 49.776 220.992C48.9867 220.693 48.4 220.267 48.016 219.712C47.632 219.136 47.44 218.379 47.44 217.44C47.44 217.248 47.4613 216.917 47.504 216.448C47.6533 215.147 48.0267 214.133 48.624 213.408C49.2213 212.661 50.0533 212.128 51.12 211.808C52.1867 211.488 53.5627 211.328 55.248 211.328H56.56L61.072 211.36L60.656 214.752H54.832C53.8933 214.752 53.1787 214.805 52.688 214.912C52.1973 214.997 51.8347 215.157 51.6 215.392C51.3867 215.605 51.248 215.925 51.184 216.352C51.1627 216.459 51.152 216.597 51.152 216.768C51.152 217.109 51.248 217.397 51.44 217.632C51.6533 217.888 51.9627 218.069 52.368 218.176C52.7947 218.261 53.5733 218.368 54.704 218.496C56.048 218.624 57.1467 218.827 58 219.104C58.7467 219.36 59.312 219.797 59.696 220.416C60.1013 221.035 60.304 221.835 60.304 222.816C60.304 223.285 60.2827 223.648 60.24 223.904C59.984 225.888 59.2373 227.275 58 228.064C56.7627 228.875 54.864 229.28 52.304 229.28H51.216Z" fill="white" fill-opacity="0.7"/>
<path d="M72.499 211.2C74.6963 211.2 76.3497 211.723 77.459 212.768C78.5897 213.792 79.155 215.317 79.155 217.344C79.155 217.813 79.123 218.325 79.059 218.88L78.707 221.76H66.771V221.792C66.7283 222.261 66.707 222.581 66.707 222.752C66.707 223.84 67.0163 224.651 67.635 225.184C68.275 225.696 69.3417 225.952 70.835 225.952H72.403C73.5123 225.952 75.1977 225.856 77.459 225.664L77.107 228.992C75.2297 229.184 73.5443 229.28 72.051 229.28H70.483C67.9017 229.28 66.003 228.757 64.787 227.712C63.5923 226.667 62.995 225.131 62.995 223.104C62.995 222.613 63.027 222.112 63.091 221.6L63.411 218.912C63.7097 216.352 64.5523 214.432 65.939 213.152C67.3257 211.851 69.299 211.2 71.859 211.2H72.499ZM75.411 218.656V218.624C75.4537 218.155 75.475 217.813 75.475 217.6C75.475 216.576 75.1977 215.797 74.643 215.264C74.1097 214.731 73.2563 214.464 72.083 214.464H71.443C68.9257 214.464 67.4963 215.861 67.155 218.656H75.411Z" fill="white" fill-opacity="0.7"/>
<path d="M86.336 214.752L84.608 229.152H80.928L83.104 211.328H91.136C95.552 211.328 97.76 213.355 97.76 217.408C97.76 217.899 97.728 218.432 97.664 219.008L96.416 229.152H92.736L93.984 218.912C94.0267 218.485 94.048 218.187 94.048 218.016C94.048 215.84 92.9387 214.752 90.72 214.752H86.336Z" fill="white" fill-opacity="0.7"/>
<path d="M100.397 229.152L103.405 204.48H107.085L104.077 229.152H100.397Z" fill="white" fill-opacity="0.7"/>
<path d="M120.305 225.632L122.032 211.328H125.712L123.537 229.152H115.505C111.089 229.152 108.881 227.125 108.881 223.072C108.881 222.581 108.913 222.048 108.977 221.472L110.225 211.328H113.905L112.657 221.568C112.614 221.845 112.592 222.229 112.592 222.72C112.592 223.829 112.849 224.597 113.361 225.024C113.894 225.451 114.747 225.664 115.921 225.664L120.305 225.632Z" fill="white" fill-opacity="0.7"/>
<path d="M128.317 218.912C128.936 213.771 131.763 211.2 136.797 211.2H138.333C142.749 211.2 144.957 213.227 144.957 217.28C144.957 217.771 144.925 218.304 144.861 218.88L144.541 221.568C143.923 226.709 141.096 229.28 136.061 229.28H134.525C130.109 229.28 127.901 227.253 127.901 223.2C127.901 222.709 127.933 222.176 127.997 221.6L128.317 218.912ZM136.477 225.856C139.037 225.856 140.488 224.459 140.829 221.664L141.181 218.784C141.224 218.357 141.245 218.059 141.245 217.888C141.245 215.712 140.136 214.624 137.917 214.624H136.381C133.821 214.624 132.371 216.021 132.029 218.816L131.677 221.696C131.635 222.123 131.613 222.421 131.613 222.592C131.613 224.768 132.723 225.856 134.941 225.856H136.477Z" fill="white" fill-opacity="0.7"/>
<path d="M151.435 229.28C149.472 229.237 147.776 229.152 146.347 229.024L146.827 225.568C148.917 225.76 150.592 225.877 151.851 225.92H152.939C154.304 225.92 155.253 225.749 155.787 225.408C156.341 225.067 156.683 224.576 156.811 223.936C156.832 223.829 156.843 223.68 156.843 223.488C156.843 222.955 156.757 222.603 156.587 222.432C156.437 222.197 156.192 222.037 155.851 221.952C155.509 221.867 154.859 221.771 153.899 221.664L153.163 221.568C152.053 221.483 150.997 221.291 149.995 220.992C149.205 220.693 148.619 220.267 148.235 219.712C147.851 219.136 147.659 218.379 147.659 217.44C147.659 217.248 147.68 216.917 147.723 216.448C147.872 215.147 148.245 214.133 148.843 213.408C149.44 212.661 150.272 212.128 151.339 211.808C152.405 211.488 153.781 211.328 155.467 211.328H156.779L161.291 211.36L160.875 214.752H155.051C154.112 214.752 153.397 214.805 152.907 214.912C152.416 214.997 152.053 215.157 151.819 215.392C151.605 215.605 151.467 215.925 151.403 216.352C151.381 216.459 151.371 216.597 151.371 216.768C151.371 217.109 151.467 217.397 151.659 217.632C151.872 217.888 152.181 218.069 152.587 218.176C153.013 218.261 153.792 218.368 154.923 218.496C156.267 218.624 157.365 218.827 158.219 219.104C158.965 219.36 159.531 219.797 159.915 220.416C160.32 221.035 160.523 221.835 160.523 222.816C160.523 223.285 160.501 223.648 160.459 223.904C160.203 225.888 159.456 227.275 158.219 228.064C156.981 228.875 155.083 229.28 152.523 229.28H151.435Z" fill="white" fill-opacity="0.7"/>
<path d="M166.03 204.48H169.71L168.878 211.328H173.23C177.646 211.328 179.854 213.355 179.854 217.408C179.854 217.899 179.822 218.432 179.758 219.008L178.51 229.152H174.83L176.078 218.912C176.12 218.485 176.142 218.187 176.142 218.016C176.142 215.84 175.032 214.752 172.814 214.752H168.462L166.702 229.152H163.022L166.03 204.48Z" fill="white" fill-opacity="0.7"/>
<path d="M192.186 211.2C194.384 211.2 196.037 211.723 197.147 212.768C198.277 213.792 198.843 215.317 198.843 217.344C198.843 217.813 198.811 218.325 198.747 218.88L198.395 221.76H186.458V221.792C186.416 222.261 186.395 222.581 186.395 222.752C186.395 223.84 186.704 224.651 187.323 225.184C187.963 225.696 189.029 225.952 190.523 225.952H192.091C193.2 225.952 194.885 225.856 197.147 225.664L196.794 228.992C194.917 229.184 193.232 229.28 191.738 229.28H190.17C187.589 229.28 185.691 228.757 184.475 227.712C183.28 226.667 182.682 225.131 182.682 223.104C182.682 222.613 182.715 222.112 182.779 221.6L183.099 218.912C183.397 216.352 184.24 214.432 185.627 213.152C187.013 211.851 188.986 211.2 191.546 211.2H192.186ZM195.098 218.656V218.624C195.141 218.155 195.163 217.813 195.163 217.6C195.163 216.576 194.885 215.797 194.331 215.264C193.797 214.731 192.944 214.464 191.771 214.464H191.131C188.613 214.464 187.184 215.861 186.842 218.656H195.098Z" fill="white" fill-opacity="0.7"/>
<path d="M200.776 226.496C200.861 225.941 201.074 225.515 201.416 225.216C201.778 224.896 202.226 224.736 202.76 224.736H203.687C204.221 224.736 204.637 224.896 204.936 225.216C205.256 225.515 205.373 225.941 205.288 226.496L205.16 227.456C205.074 228.032 204.85 228.48 204.488 228.8C204.125 229.12 203.677 229.28 203.144 229.28H202.215C201.682 229.28 201.266 229.12 200.968 228.8C200.669 228.48 200.562 228.032 200.648 227.456L200.776 226.496Z" fill="white" fill-opacity="0.7"/>
<path d="M217.599 214.752C216.277 214.752 215.263 215.104 214.559 215.808C213.877 216.512 213.45 217.557 213.279 218.944L212.959 221.696C212.917 222.123 212.895 222.432 212.895 222.624C212.895 224.779 213.994 225.856 216.191 225.856H217.439C218.399 225.856 220.01 225.76 222.271 225.568L221.919 228.992C220.042 229.184 218.431 229.28 217.087 229.28H215.775C211.359 229.28 209.151 227.275 209.151 223.264C209.151 222.731 209.183 222.176 209.247 221.6L209.567 219.04C209.887 216.48 210.741 214.56 212.127 213.28C213.514 211.979 215.477 211.328 218.015 211.328H219.199L223.679 211.392L223.263 214.784L217.599 214.752Z" fill="white" fill-opacity="0.7"/>
<path d="M225.661 218.912C226.28 213.771 229.106 211.2 234.141 211.2H235.677C240.093 211.2 242.301 213.227 242.301 217.28C242.301 217.771 242.269 218.304 242.205 218.88L241.885 221.568C241.266 226.709 238.44 229.28 233.405 229.28H231.869C227.453 229.28 225.245 227.253 225.245 223.2C225.245 222.709 225.277 222.176 225.341 221.6L225.661 218.912ZM233.821 225.856C236.381 225.856 237.832 224.459 238.173 221.664L238.525 218.784C238.568 218.357 238.589 218.059 238.589 217.888C238.589 215.712 237.48 214.624 235.261 214.624H233.725C231.165 214.624 229.714 216.021 229.373 218.816L229.021 221.696C228.978 222.123 228.957 222.421 228.957 222.592C228.957 224.768 230.066 225.856 232.285 225.856H233.821Z" fill="white" fill-opacity="0.7"/>
<path d="M260.746 214.752L259.018 229.152H255.338L257.099 214.752H249.899L248.171 229.152H244.49L246.667 211.328H264.586C269.002 211.328 271.211 213.355 271.211 217.408C271.211 217.899 271.179 218.432 271.115 219.008L269.867 229.152H266.187L267.435 218.912C267.477 218.485 267.499 218.187 267.499 218.016C267.499 215.84 266.389 214.752 264.171 214.752H260.746Z" fill="white" fill-opacity="0.7"/>
<path d="M72.176 102.544L71.12 110.8H102.224L101.264 118.576H74.48C78.832 121.776 83.664 124.752 88.976 127.504C94.352 130.192 99.824 132.496 105.392 134.416L99.92 140.944C88.208 136.336 78.096 130.448 69.584 123.28L67.568 139.984H58.256L60.272 123.376C51.952 129.84 41.456 135.536 28.784 140.464L22.736 134.32C35.856 130.096 46.608 124.848 54.992 118.576H29.648L30.608 110.8H61.808L62.864 102.544H72.176ZM63.92 145.744H78.224L79.088 137.968H87.344L86.48 145.744H102.32L101.456 153.328H86.96C89.52 157.552 92.368 161.648 95.504 165.616C98.64 169.52 101.68 172.784 104.624 175.408L97.52 180.016C92.336 174.128 88.048 168.336 84.656 162.64L82.352 184.72H74L76.304 163.408C71.376 169.936 66.224 175.44 60.848 179.92L54.224 175.408C60.944 170.416 68.016 163.056 75.44 153.328H62.864L63.92 145.744ZM23.792 145.744H39.344L40.304 138.064H48.752L47.792 145.744H60.464L59.6 153.328H46.928L46.832 153.712C50.864 157.232 55.12 161.52 59.6 166.576L53.648 171.088C50.832 167.184 48.272 163.888 45.968 161.2L43.184 184.72H34.64L37.04 164.464C32.368 170.544 27.984 175.376 23.888 178.96L17.552 174.256C21.008 171.568 24.4 168.4 27.728 164.752C31.12 161.104 34.16 157.296 36.848 153.328H22.736L23.792 145.744Z" fill="white"/>
<path d="M194.96 134.608H122.96L125.648 112.048C126.224 107.76 128.848 105.744 133.52 106H189.776C195.152 106 197.584 108.592 197.072 113.776L194.96 134.608ZM147.056 113.584H134.48L133.04 126.352H145.712L147.056 113.584ZM167.888 113.584H155.12L153.776 126.352H166.448L167.888 113.584ZM174.512 126.352H186.704L188.144 113.584H175.952L174.512 126.352ZM158.192 135.856L152.816 141.712H182.576C184.304 141.712 185.84 142.128 187.184 142.96C188.592 143.728 189.584 144.72 190.16 145.936C190.544 146.704 190.736 147.536 190.736 148.432C190.736 150.416 189.808 152.208 187.952 153.808C179.312 161.168 172.24 166.576 166.736 170.032C160.016 174.32 152.944 177.776 145.52 180.4C138.352 182.96 129.36 185.232 118.544 187.216L113.648 179.248C121.392 177.712 128.592 175.984 135.248 174.064C141.136 172.336 146.576 170.288 151.568 167.92L137.168 157.456C135.248 159.12 132.176 161.584 127.952 164.848H114.992C121.52 159.792 127.184 155.088 131.984 150.736C134.16 148.752 136.528 146.48 139.088 143.92C141.648 141.36 144.272 138.672 146.96 135.856H158.192ZM145.136 149.872L143.216 151.792L160.4 163.216C164.944 160.336 170.064 156.496 175.76 151.696C176.528 151.12 176.912 150.672 176.912 150.352C176.912 150.032 176.08 149.872 174.416 149.872H145.136Z" fill="white"/>
<path d="M247.472 123.856C244.976 128.72 242.224 133.104 239.216 137.008C243.888 140.72 247.824 144.496 251.024 148.336L244.208 154.096C241.264 150.384 238.64 147.376 236.336 145.072L231.632 184.624H222.608L226.832 149.296C223.824 151.792 220.208 154.448 215.984 157.264L210.128 150.352C216.144 146.96 221.52 143.024 226.256 138.544C230.992 134 234.576 129.232 237.008 124.24C237.264 123.728 237.392 123.312 237.392 122.992C237.392 122.736 237.232 122.544 236.912 122.416C236.592 122.288 236.08 122.224 235.376 122.224H218.48L219.44 113.584H230.48L227.504 102.064H236.72L239.696 113.584H241.424C243.856 113.584 245.68 114.064 246.896 115.024C248.176 115.92 248.816 117.232 248.816 118.96C248.816 120.304 248.368 121.936 247.472 123.856ZM271.856 174.352H294.32L293.264 183.28H241.328L242.384 174.352H262.064L266.576 136.528H249.872L250.928 127.504H267.632L270.608 102.832H280.496L277.52 127.504H294.224L293.264 136.528H276.368L271.856 174.352Z" fill="white"/>
</g>
<defs>
<clipPath id="clip0_114_8">
<rect width="320" height="320" fill="white"/>
</clipPath>
</defs>
</svg>
